<svg xmlns="http://www.w3.org/2000/svg" xmlns:xlink="http://www.w3.org/1999/xlink" width="500" zoomAndPan="magnify" viewBox="0 0 375 374.999991" height="500" preserveAspectRatio="xMidYMid meet" version="1.2"><defs><clipPath id="20e399488a"><path d="M 91.457031 102 L 194 102 L 194 169 L 91.457031 169 Z M 91.457031 102 "/></clipPath><clipPath id="0357a72274"><path d="M 166 89.28125 L 253 89.28125 L 253 145 L 166 145 Z M 166 89.28125 "/></clipPath><clipPath id="ee6e50b0e4"><path d="M 233 137 L 283.457031 137 L 283.457031 184 L 233 184 Z M 233 137 "/></clipPath><clipPath id="37f3f5847e"><path d="M 172 242 L 226 242 L 226 271 L 172 271 Z M 172 242 "/></clipPath><clipPath id="d7e39ad7ae"><path d="M 168.878906 253.746094 L 224.824219 239.429688 L 229.101562 256.140625 L 173.152344 270.457031 Z M 168.878906 253.746094 "/></clipPath><clipPath id="ba5549a4ec"><path d="M 168.878906 253.746094 L 224.824219 239.429688 L 229.101562 256.140625 L 173.152344 270.457031 Z M 168.878906 253.746094 "/></clipPath></defs><g id="4e9880385a"><path style=" stroke:none;fill-rule:nonzero;fill:#6ec72d;fill-opacity:1;" d="M 138.65625 174.382812 C 128.179688 177.140625 116.777344 177.207031 106.011719 177.359375 C 103.035156 177.402344 100.058594 177.425781 97.078125 177.46875 C 101.625 183.125 108.589844 186.75 116.402344 186.75 C 116.703125 186.75 117.003906 186.738281 117.300781 186.726562 C 120.199219 197.238281 129.800781 204.957031 141.207031 204.957031 C 143.136719 204.957031 145.011719 204.734375 146.8125 204.316406 C 145.984375 195.253906 146.550781 185.113281 150.367188 176.964844 C 152.039062 173.40625 154.441406 170.503906 157.347656 168.261719 C 151.074219 170.171875 144.992188 172.710938 138.65625 174.382812 "/><g clip-rule="nonzero" clip-path="url(#20e399488a)"><path style=" stroke:none;fill-rule:nonzero;fill:#fabb18;fill-opacity:1;" d="M 193.25 143.839844 C 192.8125 141.554688 192.308594 139.488281 191.164062 137.601562 C 190.578125 136.632812 190.546875 136.53125 189.902344 135.859375 C 189.261719 135.191406 188.726562 134.707031 188.390625 134.480469 C 185.058594 132.242188 181.082031 131.421875 176.796875 130.835938 C 172.398438 130.234375 167.121094 130.300781 164.332031 126.203125 C 161.824219 122.519531 162.460938 117.070312 161.546875 112.867188 C 161.273438 111.617188 160.933594 110.449219 160.515625 109.34375 C 156.105469 105.292969 150.238281 102.8125 143.78125 102.8125 C 130.082031 102.8125 118.980469 113.941406 118.980469 127.671875 C 118.980469 131.148438 119.695312 134.457031 120.980469 137.464844 C 119.496094 137.1875 117.96875 137.035156 116.402344 137.035156 C 102.707031 137.035156 91.601562 148.164062 91.601562 161.890625 C 91.601562 164.304688 91.949219 166.636719 92.589844 168.839844 C 98 168.726562 103.414062 168.707031 108.824219 168.59375 C 118.871094 168.382812 129.4375 168.253906 139.097656 165.164062 C 146.496094 162.789062 153.734375 159.765625 161.371094 158.203125 C 168.839844 156.675781 176.804688 156.238281 183.039062 161.3125 C 183.53125 161.214844 184.023438 161.109375 184.515625 160.988281 C 186.640625 160.460938 187.890625 160.101562 189.421875 159.15625 C 190.589844 158.433594 191.433594 157.683594 192.0625 156.601562 C 192.867188 155.210938 193.449219 153.484375 193.585938 151.484375 C 193.761719 148.949219 193.734375 146.34375 193.25 143.839844 "/></g><g clip-rule="nonzero" clip-path="url(#0357a72274)"><path style=" stroke:none;fill-rule:nonzero;fill:#43bcbb;fill-opacity:1;" d="M 170.753906 115.78125 C 171.007812 117.875 170.988281 119.398438 171.535156 121.1875 L 171.542969 121.21875 L 171.542969 121.222656 C 171.648438 121.261719 171.730469 121.292969 171.722656 121.296875 C 172.007812 121.378906 172.292969 121.460938 172.585938 121.519531 C 174.933594 122.003906 177.335938 122.15625 179.703125 122.519531 C 183.921875 123.164062 188.359375 124.148438 192.019531 126.457031 C 198.324219 130.433594 201.394531 137.363281 202.175781 144.582031 C 219.675781 144.519531 238.300781 142.269531 251.355469 129.402344 C 251.660156 129.097656 251.980469 128.863281 252.304688 128.671875 C 252.320312 128.339844 252.335938 128.007812 252.335938 127.671875 C 252.335938 113.941406 241.230469 102.8125 227.53125 102.8125 C 221.410156 102.8125 215.804688 105.042969 211.480469 108.726562 C 209.027344 97.589844 199.121094 89.257812 187.269531 89.257812 C 178.363281 89.257812 170.554688 93.960938 166.183594 101.03125 C 167.4375 103.007812 168.4375 105.152344 169.132812 107.445312 C 169.957031 110.167969 170.410156 112.960938 170.753906 115.78125 "/></g><path style=" stroke:none;fill-rule:nonzero;fill:#cd2154;fill-opacity:1;" d="M 264.265625 190.871094 C 263.757812 187.292969 263.1875 183.203125 260.699219 180.375 C 255.691406 174.683594 248.625 172.015625 241.300781 171.378906 C 241.359375 172.9375 241.382812 174.5 241.382812 176.0625 C 241.390625 181.683594 232.691406 181.683594 232.6875 176.0625 C 232.679688 170.402344 232.714844 164.792969 230.59375 159.523438 C 228.851562 155.199219 224.910156 152.714844 219.640625 152.335938 C 219.511719 152.328125 219.386719 152.308594 219.261719 152.289062 C 213.570312 153.007812 207.785156 153.28125 202.070312 153.300781 C 202.050781 153.476562 202.03125 153.652344 202.003906 153.828125 C 200.640625 163.332031 193.304688 168.363281 184.355469 169.902344 C 179.535156 170.730469 174.480469 170.683594 169.738281 171.855469 C 165.929688 172.796875 162.164062 174.667969 160.136719 177.492188 C 157.617188 181.003906 156.460938 184.820312 155.835938 189.21875 C 155.289062 193.074219 155.144531 197.132812 155.316406 201.132812 C 159.734375 205.222656 165.636719 207.730469 172.128906 207.730469 C 181.183594 207.730469 189.101562 202.867188 193.433594 195.605469 C 197.859375 199.722656 203.785156 202.246094 210.296875 202.246094 C 213.445312 202.246094 216.453125 201.652344 219.222656 200.582031 C 223.359375 208.53125 231.652344 213.96875 241.222656 213.96875 C 252.582031 213.96875 262.152344 206.308594 265.089844 195.867188 C 264.761719 194.234375 264.507812 192.574219 264.265625 190.871094 "/><g clip-rule="nonzero" clip-path="url(#ee6e50b0e4)"><path style=" stroke:none;fill-rule:nonzero;fill:#693490;fill-opacity:1;" d="M 258.457031 137.035156 C 257.550781 137.035156 256.65625 137.089844 255.773438 137.183594 C 249.335938 142.980469 241.871094 146.78125 233.902344 149.226562 C 235.660156 150.84375 237.121094 152.832031 238.152344 155.230469 C 239.183594 157.625 239.886719 160.082031 240.371094 162.582031 C 249.621094 163.082031 259.179688 166.152344 265.71875 172.980469 C 268.5 175.886719 270.421875 179.257812 271.542969 183.003906 C 278.574219 178.617188 283.257812 170.804688 283.257812 161.890625 C 283.257812 148.164062 272.152344 137.035156 258.457031 137.035156 "/></g><path style=" stroke:none;fill-rule:nonzero;fill:#cd2154;fill-opacity:1;" d="M 201.773438 200.730469 C 201.773438 200.730469 205.386719 203.125 213.84375 204.148438 C 222.300781 205.171875 225.320312 213.953125 226.285156 216.980469 C 227.25 220.007812 231.476562 235.625 242.351562 244.945312 C 253.222656 254.265625 252.496094 246.519531 256.605469 244.339844 C 260.710938 242.160156 259.140625 238.773438 255.878906 235.988281 C 252.617188 233.203125 249.960938 222.671875 252.257812 217.222656 C 254.550781 211.777344 254.910156 210.574219 257.644531 207.726562 C 260.382812 204.882812 211.449219 185.085938 201.773438 200.730469 "/><g clip-rule="nonzero" clip-path="url(#37f3f5847e)"><g clip-rule="nonzero" clip-path="url(#d7e39ad7ae)"><g clip-rule="nonzero" clip-path="url(#ba5549a4ec)"><path style=" stroke:none;fill-rule:nonzero;fill:#cd2154;fill-opacity:1;" d="M 225.382812 242.222656 C 225.339844 242.050781 225.167969 241.976562 225.027344 242.011719 C 224.46875 242.15625 224.886719 246.269531 217.011719 248.285156 C 205.796875 251.152344 195.152344 247.023438 185.894531 249.390625 C 177.980469 251.417969 170.375 259.359375 172.535156 267.800781 C 172.742188 268.601562 173.035156 269.40625 173.425781 270.203125 C 173.398438 270.144531 173.375 270.082031 173.359375 270.015625 C 173.105469 269.023438 176 259.253906 188.25 256.121094 C 197.832031 253.667969 204.726562 255.183594 213.617188 252.910156 C 221.652344 250.855469 226.164062 245.277344 225.382812 242.222656 "/></g></g></g><g style="fill:#693490;fill-opacity:1;"><g transform="translate(131.430039, 231.417554)"><path style="stroke:none" d="M 6.578125 -3.78125 L 14.734375 -3.78125 L 14.734375 0 L 1.34375 0 L 1.34375 -3.515625 L 9.4375 -15.171875 L 1.34375 -15.171875 L 1.34375 -18.9375 L 14.734375 -18.9375 L 14.734375 -15.4375 Z M 6.578125 -3.78125 "/></g></g><g style="fill:#693490;fill-opacity:1;"><g transform="translate(147.508083, 231.417554)"><path style="stroke:none" d="M 15.859375 -7.765625 C 15.859375 -7.335938 15.832031 -6.890625 15.78125 -6.421875 L 5.34375 -6.421875 C 5.414062 -5.484375 5.71875 -4.765625 6.25 -4.265625 C 6.78125 -3.773438 7.429688 -3.53125 8.203125 -3.53125 C 9.359375 -3.53125 10.160156 -4.015625 10.609375 -4.984375 L 15.515625 -4.984375 C 15.265625 -4.003906 14.8125 -3.117188 14.15625 -2.328125 C 13.5 -1.535156 12.675781 -0.910156 11.6875 -0.453125 C 10.695312 -0.00390625 9.585938 0.21875 8.359375 0.21875 C 6.890625 0.21875 5.578125 -0.09375 4.421875 -0.71875 C 3.273438 -1.351562 2.375 -2.253906 1.71875 -3.421875 C 1.070312 -4.597656 0.75 -5.96875 0.75 -7.53125 C 0.75 -9.09375 1.066406 -10.457031 1.703125 -11.625 C 2.347656 -12.800781 3.242188 -13.703125 4.390625 -14.328125 C 5.546875 -14.953125 6.867188 -15.265625 8.359375 -15.265625 C 9.816406 -15.265625 11.113281 -14.957031 12.25 -14.34375 C 13.382812 -13.738281 14.269531 -12.867188 14.90625 -11.734375 C 15.539062 -10.597656 15.859375 -9.273438 15.859375 -7.765625 Z M 11.140625 -8.984375 C 11.140625 -9.773438 10.867188 -10.40625 10.328125 -10.875 C 9.796875 -11.34375 9.125 -11.578125 8.3125 -11.578125 C 7.539062 -11.578125 6.890625 -11.351562 6.359375 -10.90625 C 5.828125 -10.457031 5.5 -9.816406 5.375 -8.984375 Z M 11.140625 -8.984375 "/></g></g><g style="fill:#693490;fill-opacity:1;"><g transform="translate(164.125658, 231.417554)"><path style="stroke:none" d="M 7.796875 0.21875 C 6.484375 0.21875 5.3125 -0.00390625 4.28125 -0.453125 C 3.257812 -0.910156 2.453125 -1.53125 1.859375 -2.3125 C 1.265625 -3.09375 0.929688 -3.96875 0.859375 -4.9375 L 5.421875 -4.9375 C 5.472656 -4.414062 5.710938 -3.992188 6.140625 -3.671875 C 6.578125 -3.347656 7.113281 -3.1875 7.75 -3.1875 C 8.320312 -3.1875 8.765625 -3.296875 9.078125 -3.515625 C 9.390625 -3.742188 9.546875 -4.039062 9.546875 -4.40625 C 9.546875 -4.832031 9.320312 -5.148438 8.875 -5.359375 C 8.425781 -5.566406 7.695312 -5.796875 6.6875 -6.046875 C 5.613281 -6.296875 4.71875 -6.5625 4 -6.84375 C 3.28125 -7.125 2.65625 -7.5625 2.125 -8.15625 C 1.601562 -8.757812 1.34375 -9.578125 1.34375 -10.609375 C 1.34375 -11.472656 1.582031 -12.257812 2.0625 -12.96875 C 2.539062 -13.675781 3.242188 -14.234375 4.171875 -14.640625 C 5.097656 -15.054688 6.195312 -15.265625 7.46875 -15.265625 C 9.363281 -15.265625 10.851562 -14.796875 11.9375 -13.859375 C 13.03125 -12.929688 13.65625 -11.691406 13.8125 -10.140625 L 9.546875 -10.140625 C 9.472656 -10.660156 9.242188 -11.070312 8.859375 -11.375 C 8.472656 -11.6875 7.96875 -11.84375 7.34375 -11.84375 C 6.800781 -11.84375 6.382812 -11.738281 6.09375 -11.53125 C 5.8125 -11.320312 5.671875 -11.039062 5.671875 -10.6875 C 5.671875 -10.25 5.898438 -9.921875 6.359375 -9.703125 C 6.816406 -9.492188 7.53125 -9.28125 8.5 -9.0625 C 9.613281 -8.78125 10.519531 -8.5 11.21875 -8.21875 C 11.925781 -7.9375 12.546875 -7.484375 13.078125 -6.859375 C 13.609375 -6.242188 13.878906 -5.414062 13.890625 -4.375 C 13.890625 -3.488281 13.640625 -2.695312 13.140625 -2 C 12.648438 -1.3125 11.941406 -0.769531 11.015625 -0.375 C 10.097656 0.0195312 9.023438 0.21875 7.796875 0.21875 Z M 7.796875 0.21875 "/></g></g><g style="fill:#693490;fill-opacity:1;"><g transform="translate(179.178598, 231.417554)"><path style="stroke:none" d="M 10.0625 -3.90625 L 10.0625 0 L 7.71875 0 C 6.039062 0 4.734375 -0.40625 3.796875 -1.21875 C 2.867188 -2.039062 2.40625 -3.378906 2.40625 -5.234375 L 2.40625 -11.21875 L 0.5625 -11.21875 L 0.5625 -15.0625 L 2.40625 -15.0625 L 2.40625 -18.734375 L 7.015625 -18.734375 L 7.015625 -15.0625 L 10.03125 -15.0625 L 10.03125 -11.21875 L 7.015625 -11.21875 L 7.015625 -5.1875 C 7.015625 -4.726562 7.117188 -4.398438 7.328125 -4.203125 C 7.546875 -4.003906 7.910156 -3.90625 8.421875 -3.90625 Z M 10.0625 -3.90625 "/></g></g><g style="fill:#693490;fill-opacity:1;"><g transform="translate(190.131096, 231.417554)"><path style="stroke:none" d="M 15.859375 -7.765625 C 15.859375 -7.335938 15.832031 -6.890625 15.78125 -6.421875 L 5.34375 -6.421875 C 5.414062 -5.484375 5.71875 -4.765625 6.25 -4.265625 C 6.78125 -3.773438 7.429688 -3.53125 8.203125 -3.53125 C 9.359375 -3.53125 10.160156 -4.015625 10.609375 -4.984375 L 15.515625 -4.984375 C 15.265625 -4.003906 14.8125 -3.117188 14.15625 -2.328125 C 13.5 -1.535156 12.675781 -0.910156 11.6875 -0.453125 C 10.695312 -0.00390625 9.585938 0.21875 8.359375 0.21875 C 6.890625 0.21875 5.578125 -0.09375 4.421875 -0.71875 C 3.273438 -1.351562 2.375 -2.253906 1.71875 -3.421875 C 1.070312 -4.597656 0.75 -5.96875 0.75 -7.53125 C 0.75 -9.09375 1.066406 -10.457031 1.703125 -11.625 C 2.347656 -12.800781 3.242188 -13.703125 4.390625 -14.328125 C 5.546875 -14.953125 6.867188 -15.265625 8.359375 -15.265625 C 9.816406 -15.265625 11.113281 -14.957031 12.25 -14.34375 C 13.382812 -13.738281 14.269531 -12.867188 14.90625 -11.734375 C 15.539062 -10.597656 15.859375 -9.273438 15.859375 -7.765625 Z M 11.140625 -8.984375 C 11.140625 -9.773438 10.867188 -10.40625 10.328125 -10.875 C 9.796875 -11.34375 9.125 -11.578125 8.3125 -11.578125 C 7.539062 -11.578125 6.890625 -11.351562 6.359375 -10.90625 C 5.828125 -10.457031 5.5 -9.816406 5.375 -8.984375 Z M 11.140625 -8.984375 "/></g></g><g style="fill:#693490;fill-opacity:1;"><g transform="translate(206.748672, 231.417554)"><path style="stroke:none" d="M 6.28125 -12.546875 C 6.820312 -13.367188 7.5 -14.019531 8.3125 -14.5 C 9.125 -14.976562 10.023438 -15.21875 11.015625 -15.21875 L 11.015625 -10.328125 L 9.734375 -10.328125 C 8.585938 -10.328125 7.722656 -10.078125 7.140625 -9.578125 C 6.566406 -9.085938 6.28125 -8.222656 6.28125 -6.984375 L 6.28125 0 L 1.671875 0 L 1.671875 -15.0625 L 6.28125 -15.0625 Z M 6.28125 -12.546875 "/></g></g><g style="fill:#cd2154;fill-opacity:1;"><g transform="translate(131.430039, 250.351501)"><path style="stroke:none" d="M 8.3125 -11.453125 L 8.3125 -10.234375 L 5.1875 -10.234375 L 5.1875 0 L 3.703125 0 L 3.703125 -10.234375 L 0.5625 -10.234375 L 0.5625 -11.453125 Z M 8.3125 -11.453125 "/></g></g><g style="fill:#cd2154;fill-opacity:1;"><g transform="translate(140.323929, 250.351501)"><path style="stroke:none" d="M 9.484375 -4.84375 C 9.484375 -4.5625 9.46875 -4.257812 9.4375 -3.9375 L 2.234375 -3.9375 C 2.285156 -3.050781 2.585938 -2.359375 3.140625 -1.859375 C 3.703125 -1.367188 4.375 -1.125 5.15625 -1.125 C 5.800781 -1.125 6.34375 -1.269531 6.78125 -1.5625 C 7.21875 -1.863281 7.519531 -2.269531 7.6875 -2.78125 L 9.296875 -2.78125 C 9.054688 -1.914062 8.570312 -1.210938 7.84375 -0.671875 C 7.125 -0.128906 6.226562 0.140625 5.15625 0.140625 C 4.300781 0.140625 3.535156 -0.046875 2.859375 -0.421875 C 2.191406 -0.804688 1.664062 -1.351562 1.28125 -2.0625 C 0.894531 -2.769531 0.703125 -3.585938 0.703125 -4.515625 C 0.703125 -5.453125 0.890625 -6.269531 1.265625 -6.96875 C 1.640625 -7.664062 2.160156 -8.203125 2.828125 -8.578125 C 3.503906 -8.960938 4.28125 -9.15625 5.15625 -9.15625 C 6.007812 -9.15625 6.765625 -8.96875 7.421875 -8.59375 C 8.085938 -8.21875 8.597656 -7.703125 8.953125 -7.046875 C 9.304688 -6.398438 9.484375 -5.664062 9.484375 -4.84375 Z M 7.9375 -5.15625 C 7.9375 -5.726562 7.8125 -6.21875 7.5625 -6.625 C 7.3125 -7.039062 6.96875 -7.351562 6.53125 -7.5625 C 6.101562 -7.78125 5.625 -7.890625 5.09375 -7.890625 C 4.34375 -7.890625 3.695312 -7.644531 3.15625 -7.15625 C 2.625 -6.675781 2.320312 -6.007812 2.25 -5.15625 Z M 7.9375 -5.15625 "/></g></g><g style="fill:#cd2154;fill-opacity:1;"><g transform="translate(150.51656, 250.351501)"><path style="stroke:none" d="M 0.703125 -4.515625 C 0.703125 -5.453125 0.890625 -6.265625 1.265625 -6.953125 C 1.640625 -7.648438 2.15625 -8.191406 2.8125 -8.578125 C 3.476562 -8.960938 4.238281 -9.15625 5.09375 -9.15625 C 6.195312 -9.15625 7.109375 -8.882812 7.828125 -8.34375 C 8.546875 -7.8125 9.019531 -7.066406 9.25 -6.109375 L 7.640625 -6.109375 C 7.484375 -6.660156 7.179688 -7.09375 6.734375 -7.40625 C 6.296875 -7.726562 5.75 -7.890625 5.09375 -7.890625 C 4.238281 -7.890625 3.546875 -7.59375 3.015625 -7 C 2.492188 -6.414062 2.234375 -5.585938 2.234375 -4.515625 C 2.234375 -3.429688 2.492188 -2.59375 3.015625 -2 C 3.546875 -1.414062 4.238281 -1.125 5.09375 -1.125 C 5.75 -1.125 6.296875 -1.273438 6.734375 -1.578125 C 7.171875 -1.878906 7.472656 -2.316406 7.640625 -2.890625 L 9.25 -2.890625 C 9.007812 -1.972656 8.523438 -1.238281 7.796875 -0.6875 C 7.078125 -0.132812 6.175781 0.140625 5.09375 0.140625 C 4.238281 0.140625 3.476562 -0.046875 2.8125 -0.421875 C 2.15625 -0.804688 1.640625 -1.347656 1.265625 -2.046875 C 0.890625 -2.753906 0.703125 -3.578125 0.703125 -4.515625 Z M 0.703125 -4.515625 "/></g></g><g style="fill:#cd2154;fill-opacity:1;"><g transform="translate(160.495468, 250.351501)"><path style="stroke:none" d="M 5.734375 -9.171875 C 6.410156 -9.171875 7.023438 -9.023438 7.578125 -8.734375 C 8.128906 -8.441406 8.5625 -8.003906 8.875 -7.421875 C 9.1875 -6.847656 9.34375 -6.144531 9.34375 -5.3125 L 9.34375 0 L 7.859375 0 L 7.859375 -5.09375 C 7.859375 -5.988281 7.632812 -6.675781 7.1875 -7.15625 C 6.738281 -7.632812 6.125 -7.875 5.34375 -7.875 C 4.550781 -7.875 3.921875 -7.625 3.453125 -7.125 C 2.992188 -6.632812 2.765625 -5.921875 2.765625 -4.984375 L 2.765625 0 L 1.265625 0 L 1.265625 -12.15625 L 2.765625 -12.15625 L 2.765625 -7.71875 C 3.054688 -8.1875 3.460938 -8.546875 3.984375 -8.796875 C 4.503906 -9.046875 5.085938 -9.171875 5.734375 -9.171875 Z M 5.734375 -9.171875 "/></g></g></g></svg>