<?xml version="1.0" encoding="UTF-8"?>
<svg version="1.1" xmlns="http://www.w3.org/2000/svg" width="498" height="501">
<path d="M0 0 C10.07152943 9.43018204 10.42320934 25.14021849 11.25 37.9375 C11.40377655 40.26066966 11.56113903 42.58360567 11.72265625 44.90625 C11.82139038 46.42895508 11.82139038 46.42895508 11.92211914 47.98242188 C12.04349451 50.43990625 12.04349451 50.43990625 13.1875 52.4375 C18.62582993 53.66752577 18.62582993 53.66752577 23.90234375 52.3984375 C26.51774901 50.55639271 26.51774901 50.55639271 26.89453125 47.08203125 C26.92933594 45.81746094 26.96414063 44.55289063 27 43.25 C27.04769531 41.97769531 27.09539062 40.70539063 27.14453125 39.39453125 C27.15871094 38.41871094 27.17289063 37.44289062 27.1875 36.4375 C37.7607733 33.54099027 49.07093232 38.36074914 58.22607422 43.39233398 C63.2089069 46.26096449 67.59436001 49.4762169 71.3125 53.875 C72.02792969 54.70837891 72.02792969 54.70837891 72.7578125 55.55859375 C77.36803665 61.6173856 78.51149155 67.5213529 79.9375 74.875 C80.17082031 75.99455078 80.40414062 77.11410156 80.64453125 78.26757812 C80.96744141 79.89663086 80.96744141 79.89663086 81.296875 81.55859375 C81.59029785 83.03477173 81.59029785 83.03477173 81.88964844 84.54077148 C82.44193014 89.91193739 81.07424654 94.18179449 78.8125 99 C78.18214844 100.36318359 78.18214844 100.36318359 77.5390625 101.75390625 C74.97084792 106.85322249 72.27150662 110.44631172 68.1875 114.4375 C59.60617131 122.85459273 53.16785827 134.0987698 52.94580078 146.27539062 C52.89262416 160.52672468 55.75823972 170.4231143 65.5 181.125 C68.13964161 184.13280215 69.27733971 186.30487334 69.1875 190.4375 C67.56379372 194.11220369 65.60897955 196.34046415 62.1875 198.4375 C61.5275 198.4375 60.8675 198.4375 60.1875 198.4375 C59.79111328 199.32695312 59.79111328 199.32695312 59.38671875 200.234375 C57.41685446 203.85327877 54.65525904 206.25252987 51.1875 208.4375 C46.44274493 209.30018274 42.79023658 208.40538712 38.5546875 206.08984375 C16.22558004 190.50368458 1.92691452 165.66404623 -5.5 139.875 C-8.80348625 128.64084467 -13.13835091 118.30737894 -23.8125 112.4375 C-27.62881214 110.92798378 -31.25538934 110.17526807 -35.31835938 109.65307617 C-43.31281771 108.57215404 -50.40579301 106.30720419 -57.8125 103.125 C-58.67174072 102.75818115 -59.53098145 102.3913623 -60.41625977 102.01342773 C-66.30270681 99.38285224 -71.55861763 96.16613844 -76.8125 92.4375 C-77.2262085 93.03602783 -77.63991699 93.63455566 -78.06616211 94.2512207 C-85.51911626 104.82933265 -95.696573 111.29441002 -107.8125 115.4375 C-109.05 115.870625 -110.2875 116.30375 -111.5625 116.75 C-125.39833433 119.7066202 -140.76341762 117.30660478 -152.76953125 109.828125 C-153.44371094 109.36921875 -154.11789063 108.9103125 -154.8125 108.4375 C-155.57949219 107.95796875 -156.34648437 107.4784375 -157.13671875 106.984375 C-160.35254114 104.67212574 -162.47836913 102.90306712 -163.37890625 98.953125 C-163.4458137 95.72372557 -163.16579144 92.64891922 -162.8125 89.4375 C-162.72008138 88.05624352 -162.63174928 86.67470932 -162.546875 85.29296875 C-161.51913577 71.21869412 -158.68878693 54.40742968 -147.8125 44.4375 C-136.42985606 35.30352523 -122.18876703 34.04497058 -108.1315918 32.36230469 C-91.90266144 30.40666257 -77.11762674 28.04733482 -66.3125 14.375 C-62.40771553 8.61347364 -60.77195133 3.29072381 -59.8125 -3.5625 C-56.99336526 -4.97206737 -54.43840804 -4.89269713 -51.29296875 -5.09765625 C-50.63855301 -5.14063339 -49.98413727 -5.18361053 -49.30989075 -5.22789001 C-47.91709809 -5.31819966 -46.52416188 -5.40631764 -45.13110352 -5.49243164 C-43.04592634 -5.62214309 -40.9614821 -5.76069418 -38.87695312 -5.90039062 C-10.44455187 -7.74918364 -10.44455187 -7.74918364 0 0 Z " fill="#CC2253" transform="translate(332.8125,213.5625)"/>
<path d="M0 0 C5.46069606 5.12819466 5.82890554 12.39102238 6.7265625 19.4765625 C6.84547852 20.3936499 6.96439453 21.3107373 7.08691406 22.25561523 C7.31584966 24.08853483 7.52446652 25.92413874 7.70996094 27.76196289 C8.44698116 33.93307227 10.00358129 38.58096113 14.0625 43.375 C21.3907282 49.00158877 31.74502404 49.37955596 40.61279297 50.2121582 C49.91026805 51.15934343 59.90730926 54.03359705 67.0625 60.375 C74.11830024 69.73569498 75.44465565 78.28756956 75.5 89.75 C75.53287109 90.94367188 75.56574219 92.13734375 75.59960938 93.3671875 C75.65636384 102.69555744 73.73560079 107.53105731 67.375 114.1875 C62.69962336 117.27501288 57.38057741 119.71005016 51.6640625 119.1328125 C48.42739538 118.18999955 45.53613184 116.83853516 42.5 115.375 C26.00482016 107.44205802 7.96582974 111.48448838 -8.9375 116.375 C-9.61135742 116.56723145 -10.28521484 116.75946289 -10.97949219 116.95751953 C-17.85040417 118.94628065 -24.60560289 121.25766524 -31.3671875 123.5859375 C-56.37153344 132.16130272 -56.37153344 132.16130272 -67.9375 133.375 C-68.81647949 133.4682959 -69.69545898 133.5615918 -70.60107422 133.65771484 C-88.38731233 135.41079131 -106.26870267 135.71829155 -124.125 136.125 C-125.8670018 136.16877777 -125.8670018 136.16877777 -127.64419556 136.21343994 C-130.96449932 136.29414452 -134.28475974 136.36039511 -137.60546875 136.421875 C-138.61874237 136.4477066 -139.63201599 136.47353821 -140.67599487 136.50015259 C-141.60429108 136.51395966 -142.53258728 136.52776672 -143.48901367 136.54199219 C-144.30311203 136.55816589 -145.11721039 136.5743396 -145.95597839 136.59100342 C-147.9375 136.375 -147.9375 136.375 -149.9375 134.375 C-153.52447705 116.08141703 -150.16617058 99.71800587 -139.9375 84.375 C-139.2775 84.375 -138.6175 84.375 -137.9375 84.375 C-137.67066406 83.77429688 -137.40382813 83.17359375 -137.12890625 82.5546875 C-135.16493494 78.96158589 -132.12879851 76.86260793 -128.9375 74.375 C-128.32261719 73.86582031 -127.70773438 73.35664063 -127.07421875 72.83203125 C-115.77959545 64.30075268 -101.67336477 62.47527087 -87.9375 63.375 C-88.1540625 62.86195313 -88.370625 62.34890625 -88.59375 61.8203125 C-93.25112236 49.0125385 -92.06668168 34.81957196 -86.9375 22.375 C-86.57527344 21.48296875 -86.21304688 20.5909375 -85.83984375 19.671875 C-79.19259678 4.98033254 -66.97737031 -3.22629102 -52.609375 -9.2421875 C-35.08121204 -15.84321908 -14.79669895 -10.75000258 0 0 Z " fill="#F9BB19" transform="translate(181.9375,109.625)"/>
<path d="M0 0 C2.02699213 1.29192905 4.03094056 2.62138377 6 4 C7.11375 4.70125 8.2275 5.4025 9.375 6.125 C19.17248011 13.29546347 24.01503042 24.31413435 29 35 C29.83402344 34.40574219 30.66804688 33.81148437 31.52734375 33.19921875 C35.02365157 30.87074137 38.65589136 29.32107004 42.5625 27.8125 C43.20896484 27.55275391 43.85542969 27.29300781 44.52148438 27.02539062 C57.56278129 21.89112622 71.15397856 22.84122785 84 28 C84.88300781 28.350625 85.76601563 28.70125 86.67578125 29.0625 C93.54752026 32.14035511 98.70517276 36.71436517 104 42 C104.5775 42.56589844 105.155 43.13179687 105.75 43.71484375 C113.7881417 52.27630197 118.23620602 63.99731221 118.4375 75.625 C118.47746094 76.89601563 118.51742187 78.16703125 118.55859375 79.4765625 C117.86072819 83.87848375 116.44945334 85.27488121 113 88 C112.01 88.33 111.02 88.66 110 89 C109.67 89.99 109.34 90.98 109 92 C106.87995677 93.57455228 104.800447 94.98902348 102.5625 96.375 C101.9228833 96.77565674 101.2832666 97.17631348 100.62426758 97.58911133 C75.97608046 112.84839704 47.14776825 118.2213971 18.4375 118.125 C16.65762695 118.13080078 16.65762695 118.13080078 14.84179688 118.13671875 C13.71708984 118.13542969 12.59238281 118.13414062 11.43359375 118.1328125 C10.41322021 118.13168457 9.39284668 118.13055664 8.34155273 118.12939453 C6 118 6 118 5 117 C4.77645393 115.10590022 4.57180049 113.2095652 4.375 111.3125 C2.85244187 100.92934043 -1.47984017 92.35189464 -9 85 C-9 84.34 -9 83.68 -9 83 C-9.66 83 -10.32 83 -11 83 C-11.42796875 82.566875 -11.8559375 82.13375 -12.296875 81.6875 C-19.7641055 74.2887762 -31.06419742 72.55289861 -41 71 C-43.44041741 70.61182017 -45.8804963 70.22187757 -48.31982422 69.8269043 C-49.91117204 69.57191135 -51.50394751 69.32563858 -53.09814453 69.08911133 C-56.6887918 68.52894484 -58.93151147 68.04565902 -62 66 C-62.64428711 63.68432617 -62.64428711 63.68432617 -63.02734375 60.79296875 C-63.1776001 59.7369043 -63.32785645 58.68083984 -63.48266602 57.59277344 C-63.63276123 56.4690332 -63.78285645 55.34529297 -63.9375 54.1875 C-65.74928835 39.16905119 -65.74928835 39.16905119 -71.68359375 25.484375 C-73 23 -73 23 -72.9609375 20.5234375 C-69.43078048 11.25318776 -59.5343598 4.35015284 -51 0 C-34.56528965 -6.99759152 -16.35913158 -7.76088639 0 0 Z " fill="#45BCBB" transform="translate(268,74)"/>
<path d="M0 0 C16.12177627 4.57638172 28.3741411 13.46550853 37.69140625 27.44140625 C44.90666025 40.78509775 46.57111491 55.85993735 42.46875 70.37890625 C42.17097656 71.32765625 41.87320313 72.27640625 41.56640625 73.25390625 C41.29957031 74.12015625 41.03273438 74.98640625 40.7578125 75.87890625 C37.37923615 85.48907898 29.46470973 96.18978947 20.55078125 101.44140625 C18.56640625 102.25390625 18.56640625 102.25390625 15.56640625 102.25390625 C15.35886719 101.64804687 15.15132813 101.0421875 14.9375 100.41796875 C9.92241391 86.77861328 0.67194578 75.76680115 -12.43359375 69.25390625 C-13.61888672 68.54814453 -13.61888672 68.54814453 -14.828125 67.828125 C-26.31561732 61.3533566 -39.49759876 59.75913147 -52.43359375 58.25390625 C-52.60898682 57.66488525 -52.78437988 57.07586426 -52.96508789 56.46899414 C-57.26298314 41.0571815 -57.26298314 41.0571815 -66.43359375 28.25390625 C-63.31314068 24.80306633 -59.66501767 23.75215568 -55.37109375 22.25390625 C-43.19473454 17.75830534 -31.7583079 11.39016243 -22.18359375 2.56640625 C-15.56969659 -2.95841007 -7.97406001 -1.73270246 0 0 Z " fill="#6A3690" transform="translate(410.43359375,173.74609375)"/>
<path d="M0 0 C-0.54087318 3.78611227 -2.11722332 5.55400767 -5 8 C-5.66 8 -6.32 8 -7 8 C-7.27199219 8.57234375 -7.54398437 9.1446875 -7.82421875 9.734375 C-9.01503656 12.0289741 -10.38520445 14.09587584 -11.8125 16.25 C-20.87908708 31.27969693 -22.2406542 49.05370895 -22.5625 66.1875 C-22.60652996 68.30791555 -22.65305658 70.4281867 -22.70530701 72.54841614 C-22.75145934 74.44254575 -22.78917403 76.33687542 -22.82641602 78.23120117 C-23 81 -23 81 -24 82 C-38.28783831 84.73596904 -52.44375257 82.40256378 -65 75 C-65.99 74.443125 -66.98 73.88625 -68 73.3125 C-77.03894391 66.34498073 -86.32718735 57.22067929 -88.68359375 45.640625 C-88.84021484 44.33351563 -88.84021484 44.33351563 -89 43 C-89.67804688 42.95101562 -90.35609375 42.90203125 -91.0546875 42.8515625 C-108.46810679 41.45270056 -122.15313238 36.32772608 -134 23 C-134 22.01 -134 21.02 -134 20 C-132.99333031 19.97240852 -132.99333031 19.97240852 -131.96632385 19.94425964 C-125.51335302 19.76531763 -119.06081805 19.57499319 -112.60852146 19.37313366 C-109.2945462 19.26982444 -105.98061571 19.17156646 -102.66625977 19.08081055 C-89.17241844 18.7087613 -75.75377128 18.19207553 -62.33984375 16.61328125 C-60.87908165 16.44351021 -60.87908165 16.44351021 -59.3888092 16.27030945 C-50.38555479 15.11298109 -41.59768346 13.01552706 -33 10.09765625 C-32.01 9.76443359 -31.02 9.43121094 -30 9.08789062 C-29.01 8.74951172 -28.02 8.41113281 -27 8.0625 C-25 7.38671875 -23 6.7109375 -21 6.03515625 C-17.89163131 4.98316388 -14.78548818 3.92593783 -11.68359375 2.85498047 C-10.61238281 2.48904785 -9.54117188 2.12311523 -8.4375 1.74609375 C-7.46683594 1.41150146 -6.49617188 1.07690918 -5.49609375 0.73217773 C-3 0 -3 0 0 0 Z " fill="#6FC72E" transform="translate(177,242)"/>
<path d="M0 0 C-0.54087318 3.78611227 -2.11722332 5.55400767 -5 8 C-5.66 8 -6.32 8 -7 8 C-7.268125 8.56074219 -7.53625 9.12148437 -7.8125 9.69921875 C-9.08437947 12.16348523 -10.52215688 14.46642405 -12 16.8125 C-14.45815308 20.85945934 -15.99717411 24.3870009 -17 29 C-17.33 29 -17.66 29 -18 29 C-17.03644647 19.58997722 -17.03644647 19.58997722 -16 15 C-15.01 15 -14.02 15 -13 15 C-13 14.01 -13 13.02 -13 12 C-13.66 12 -14.32 12 -15 12 C-15.33 10.68 -15.66 9.36 -16 8 C-16.515625 8.165 -17.03125 8.33 -17.5625 8.5 C-20.73363876 9.15049 -23.77218334 9.0620734 -27 9 C-23.14953468 6.92435854 -19.09025997 5.46023265 -15 3.9375 C-14.2884375 3.66873047 -13.576875 3.39996094 -12.84375 3.12304688 C-4.49485661 0 -4.49485661 0 0 0 Z " fill="#72C432" transform="translate(177,242)"/>
<path d="M0 0 C0.55171875 0.31710938 1.1034375 0.63421875 1.671875 0.9609375 C4.28477989 2.12709975 6.40579002 2.40045711 9.25 2.625 C10.14203125 2.69976562 11.0340625 2.77453125 11.953125 2.8515625 C12.96632813 2.92503906 12.96632813 2.92503906 14 3 C14 2.34 14 1.68 14 1 C31.36348869 0.86764082 48.65639784 1.14699877 66 2 C66 2.33 66 2.66 66 3 C57.54625878 3.7198216 49.12629795 4.19964476 40.64453125 4.38671875 C39.53567062 4.41224319 38.42681 4.43776764 37.28434753 4.46406555 C34.96947552 4.51557525 32.65455746 4.56505337 30.33959961 4.61254883 C26.78273789 4.68813245 23.22642948 4.77856162 19.66992188 4.86914062 C17.41147767 4.91757677 15.15301443 4.96513533 12.89453125 5.01171875 C11.29784355 5.05530769 11.29784355 5.05530769 9.66889954 5.09977722 C8.20047859 5.12519341 8.20047859 5.12519341 6.70239258 5.15112305 C5.84003494 5.17031296 4.97767731 5.18950287 4.08918762 5.20927429 C2 5 2 5 0 3 C0 2.01 0 1.02 0 0 Z " fill="#F5BE3A" transform="translate(32,241)"/>
<path d="M0 0 C0.73283203 0.00064453 1.46566406 0.00128906 2.22070312 0.00195312 C6.03507556 0.03290836 9.60481331 0.27337606 13.3125 1.1875 C13.3125 1.5175 13.3125 1.8475 13.3125 2.1875 C12.28479492 2.25481323 12.28479492 2.25481323 11.23632812 2.32348633 C8.09405908 2.53645409 4.95342505 2.76808286 1.8125 3 C0.19601563 3.10538086 0.19601563 3.10538086 -1.453125 3.21289062 C-9.09461425 3.79532121 -15.20083602 4.86305735 -21.6875 9.1875 C-23.0075 9.1875 -24.3275 9.1875 -25.6875 9.1875 C-25.6875 9.8475 -25.6875 10.5075 -25.6875 11.1875 C-25.0275 11.5175 -24.3675 11.8475 -23.6875 12.1875 C-27.6475 12.8475 -31.6075 13.5075 -35.6875 14.1875 C-32.6364889 9.71114281 -29.29572268 7.62850275 -24.4375 5.5 C-23.80714844 5.20544922 -23.17679688 4.91089844 -22.52734375 4.60742188 C-15.05054999 1.21926177 -8.19219149 -0.13909887 0 0 Z " fill="#F3CF62" transform="translate(146.6875,97.8125)"/>
<path d="M0 0 C-8.44328407 8.44328407 -37.77789034 4.36683982 -49 4.5625 C-51.33594344 4.60580026 -53.67188103 4.64941773 -56.0078125 4.69335938 C-61.67181275 4.7992259 -67.33587244 4.90119248 -73 5 C-73.33 5.99 -73.66 6.98 -74 8 C-74.66 7.34 -75.32 6.68 -76 6 C-76 5.01 -76 4.02 -76 3 C-75.29335709 2.97716446 -74.58671417 2.95432892 -73.85865784 2.93080139 C-67.16549546 2.71388075 -60.4724545 2.49355712 -53.77952671 2.26950932 C-50.33948469 2.15447036 -46.89941091 2.04069995 -43.45922852 1.92993164 C-39.49482192 1.80222642 -35.53061665 1.66881827 -31.56640625 1.53515625 C-30.34417862 1.49656998 -29.12195099 1.4579837 -27.86268616 1.41822815 C-18.53312467 1.09693789 -9.33094408 -0.14811022 0 0 Z " fill="#A2D176" transform="translate(119,259)"/>
<path d="M0 0 C2 1 2 1 3.03515625 3.34375 C6.05171948 12.61136631 6.76783124 21.30695429 7 31 C8.32 31 9.64 31 11 31 C11 31.66 11 32.32 11 33 C11.59167969 33.04898438 12.18335938 33.09796875 12.79296875 33.1484375 C17.19104472 33.56456867 20.96928897 34.04965595 25 36 C25 36.33 25 36.66 25 37 C10.60374966 36.1017118 10.60374966 36.1017118 6 34 C3.78340155 28.95063673 3.19827432 23.54300122 2.4375 18.125 C2.31181641 17.26519531 2.18613281 16.40539062 2.05664062 15.51953125 C1.30800512 10.3535543 0.63116504 5.18156444 0 0 Z " fill="#77C6C7" transform="translate(201,107)"/>
<path d="M0 0 C1.07426969 3.49515912 0.66896224 5.44200274 -0.45703125 8.92578125 C-1.31281018 12.1949799 -1.50164514 15.50151589 -1.75390625 18.86328125 C-2 21 -2 21 -3 23 C-3.08471364 24.81341842 -3.10721083 26.62994161 -3.09765625 28.4453125 C-3.09443359 29.52167969 -3.09121094 30.59804688 -3.08789062 31.70703125 C-3.07951172 32.83496094 -3.07113281 33.96289062 -3.0625 35.125 C-3.05798828 36.26066406 -3.05347656 37.39632812 -3.04882812 38.56640625 C-3.03701615 41.37765638 -3.02054507 44.1888023 -3 47 C-4.32 46.67 -5.64 46.34 -7 46 C-7.56851788 29.89199336 -5.40653828 15.14656145 0 0 Z " fill="#BF4F6E" transform="translate(177,269)"/>
<path d="M0 0 C15.18 0 30.36 0 46 0 C46 0.33 46 0.66 46 1 C31.81 1 17.62 1 3 1 C4.65 1.33 6.3 1.66 8 2 C8 2.99 8 3.98 8 5 C8.66 5 9.32 5 10 5 C10.268125 5.763125 10.53625 6.52625 10.8125 7.3125 C11.94424112 9.87380884 12.91223401 11.19692938 15 13 C10.18207862 13 7.20534885 10.01503061 3.625 7 C2 5 2 5 2 1 C1.34 0.67 0.68 0.34 0 0 Z " fill="#7CC341" transform="translate(44,263)"/>
<path d="M0 0 C0.33 0 0.66 0 1 0 C1.87170708 4.03808782 2.71923068 8.08088614 3.5625 12.125 C3.80935547 13.26710938 4.05621094 14.40921875 4.31054688 15.5859375 C4.53935547 16.69453125 4.76816406 17.803125 5.00390625 18.9453125 C5.21861572 19.96125488 5.4333252 20.97719727 5.65454102 22.02392578 C6.28571374 27.46137843 4.87989491 31.78822832 2.625 36.6875 C2.20476562 37.61949219 1.78453125 38.55148437 1.3515625 39.51171875 C0.10476213 41.80712868 -1.04882268 43.29414615 -3 45 C-2.505 42.03 -2.505 42.03 -2 39 C-1.34 39 -0.68 39 0 39 C0.06058594 38.39671875 0.12117188 37.7934375 0.18359375 37.171875 C0.26738281 36.37265625 0.35117187 35.5734375 0.4375 34.75 C0.51871094 33.96109375 0.59992188 33.1721875 0.68359375 32.359375 C1 30 1 30 1.53515625 27.890625 C2.71242201 23.10241805 1.37611327 17.97427988 0.7109375 13.15625 C0.12812996 8.72691271 -0.09356675 4.46781253 0 0 Z " fill="#CA4E76" transform="translate(409,276)"/>
<path d="M0 0 C1.23556641 0.01740234 1.23556641 0.01740234 2.49609375 0.03515625 C3.32238281 0.04417969 4.14867187 0.05320313 5 0.0625 C5.63808594 0.07410156 6.27617187 0.08570313 6.93359375 0.09765625 C3.81619505 1.80006547 0.80032478 2.75357793 -2.62890625 3.66015625 C-7.77758177 5.08123442 -12.82999712 6.67256482 -17.88671875 8.39453125 C-19.09642334 8.80630615 -20.30612793 9.21808105 -21.55249023 9.64233398 C-24.00770864 10.48330418 -26.46039479 11.33170626 -28.91040039 12.18774414 C-30.04856201 12.57696045 -31.18672363 12.96617676 -32.359375 13.3671875 C-33.38571045 13.72401611 -34.4120459 14.08084473 -35.46948242 14.44848633 C-38.06640625 15.09765625 -38.06640625 15.09765625 -41.06640625 14.09765625 C-40.73640625 13.43765625 -40.40640625 12.77765625 -40.06640625 12.09765625 C-38.140625 11.46484375 -38.140625 11.46484375 -35.75390625 10.97265625 C-34.97402344 10.80507812 -34.19414062 10.6375 -33.390625 10.46484375 C-31.06640625 10.09765625 -31.06640625 10.09765625 -27.06640625 10.09765625 C-27.06640625 9.43765625 -27.06640625 8.77765625 -27.06640625 8.09765625 C-24.42640625 7.76765625 -21.78640625 7.43765625 -19.06640625 7.09765625 C-19.06640625 6.43765625 -19.06640625 5.77765625 -19.06640625 5.09765625 C-13.71041851 3.16658584 -8.71151182 1.80329445 -3.06640625 1.09765625 C-2.06640625 0.09765625 -2.06640625 0.09765625 0 0 Z " fill="#F4CA5A" transform="translate(174.06640625,222.90234375)"/>
<path d="M0 0 C3.22247866 1.69704497 3.55419891 4.3680784 4.66796875 7.73046875 C5.08433594 8.95121094 5.50070312 10.17195312 5.9296875 11.4296875 C7.50878177 16.8596585 8.10571275 21.77100839 8.04296875 27.41796875 C8.03394531 28.47757813 8.02492188 29.5371875 8.015625 30.62890625 C8.00402344 31.42554688 7.99242187 32.2221875 7.98046875 33.04296875 C7.32046875 33.04296875 6.66046875 33.04296875 5.98046875 33.04296875 C5.93148438 32.23472656 5.8825 31.42648438 5.83203125 30.59375 C5.75726563 29.52511719 5.6825 28.45648438 5.60546875 27.35546875 C5.53585937 26.29972656 5.46625 25.24398437 5.39453125 24.15625 C4.98887945 21.10620771 4.18437628 18.85361219 2.98046875 16.04296875 C2.59129519 14.48881811 2.23524931 12.92587421 1.91796875 11.35546875 C1.44290852 9.01942875 1.04822953 7.17849031 -0.01953125 5.04296875 C-2.5468636 4.38741756 -2.5468636 4.38741756 -5.01953125 4.04296875 C-5.01953125 3.38296875 -5.01953125 2.72296875 -5.01953125 2.04296875 C-2.01953125 0.04296875 -2.01953125 0.04296875 0 0 Z " fill="#795598" transform="translate(447.01953125,201.95703125)"/>
<path d="M0 0 C0.66 0 1.32 0 2 0 C1.58764677 5.2231409 -0.41306776 9.09648111 -2.84375 13.6328125 C-4.68581818 17.4040737 -5.13835559 20.81290242 -5.31640625 24.984375 C-5.35830078 25.91894531 -5.40019531 26.85351562 -5.44335938 27.81640625 C-5.48267578 28.78449219 -5.52199219 29.75257813 -5.5625 30.75 C-5.60568359 31.73355469 -5.64886719 32.71710938 -5.69335938 33.73046875 C-5.79922052 36.15351275 -5.90130171 38.5766554 -6 41 C-8.62076984 38.37923016 -8.28545772 36.45235538 -8.32861328 32.87915039 C-8.3232959 32.07340576 -8.31797852 31.26766113 -8.3125 30.4375 C-8.30976074 29.6220874 -8.30702148 28.8066748 -8.30419922 27.96655273 C-8.17856203 20.74097033 -7.09535378 15.14303067 -3 9 C-2.835 8.01 -2.67 7.02 -2.5 6 C-2 3 -2 3 0 0 Z " fill="#C95D7D" transform="translate(391,334)"/>
<path d="M0 0 C1.98 0 3.96 0 6 0 C0.71965566 5.28034434 -9.04037407 6.20431514 -16.30029297 6.37841797 C-22.43450479 6.36831218 -28.1452193 5.95159357 -34 4 C-34 3.67 -34 3.34 -34 3 C-33.2479126 3.00523682 -32.4958252 3.01047363 -31.72094727 3.01586914 C-28.33480658 3.03657227 -24.94867916 3.04963877 -21.5625 3.0625 C-20.37849609 3.07087891 -19.19449219 3.07925781 -17.97460938 3.08789062 C-16.84990234 3.09111328 -15.72519531 3.09433594 -14.56640625 3.09765625 C-13.00321655 3.10551147 -13.00321655 3.10551147 -11.40844727 3.11352539 C-9.04871253 3.27305556 -9.04871253 3.27305556 -8 2 C-5.32941149 1.85884839 -2.67567762 1.95752893 0 2 C0 1.34 0 0.68 0 0 Z " fill="#D47D97" transform="translate(227,325)"/>
<path d="M0 0 C0.33 0 0.66 0 1 0 C2.47773994 11.39970808 3.28189885 22.50479125 3 34 C1 33 1 33 0.38110352 31.35839844 C-0.11304004 28.30046972 -0.11124438 25.36371893 -0.09765625 22.265625 C-0.09443359 20.97011719 -0.09121094 19.67460937 -0.08789062 18.33984375 C-0.07953598 16.97656183 -0.07107104 15.61328058 -0.0625 14.25 C-0.05748168 12.87109535 -0.05291935 11.49218896 -0.04882812 10.11328125 C-0.03704093 6.74214341 -0.02058635 3.37109372 0 0 Z " fill="#CE5A82" transform="translate(341,232)"/>
<path d="M0 0 C0.55786194 0.32342377 1.11572388 0.64684753 1.69049072 0.98007202 C4.2943933 2.13001029 6.1151016 2.2749758 8.95214844 2.31884766 C9.93286316 2.33871735 10.91357788 2.35858704 11.92401123 2.37905884 C12.97518127 2.39061005 14.02635132 2.40216125 15.109375 2.4140625 C16.19132141 2.43342865 17.27326782 2.4527948 18.38800049 2.4727478 C21.84192026 2.53250237 25.29587344 2.57891297 28.75 2.625 C31.09246241 2.66318353 33.43491084 2.70223548 35.77734375 2.7421875 C41.51810499 2.83820056 47.25895053 2.92326027 53 3 C53 3.33 53 3.66 53 4 C45.77374796 4.19326436 38.54723373 4.37075091 31.3203125 4.53710938 C28.86026169 4.5956201 26.40029502 4.65778431 23.94042969 4.72363281 C20.4109631 4.81748648 16.8814055 4.89833002 13.3515625 4.9765625 C12.24632233 5.00875885 11.14108215 5.0409552 10.00234985 5.0741272 C8.47098892 5.10438492 8.47098892 5.10438492 6.90869141 5.13525391 C6.00712311 5.15746002 5.10555481 5.17966614 4.17666626 5.20254517 C2 5 2 5 0 3 C0 2.01 0 1.02 0 0 Z " fill="#F9C990" transform="translate(32,241)"/>
<path d="M0 0 C7.30758184 -0.27986484 15.3089798 -0.3455101 22 3 C22.33333333 5.33333333 22.66666667 7.66666667 23 10 C23.66 10.33 24.32 10.66 25 11 C24.34 11.66 23.68 12.32 23 13 C22.278125 12.2575 21.55625 11.515 20.8125 10.75 C14.2363262 4.3199634 9.15074656 2.09808959 0 1 C0 0.67 0 0.34 0 0 Z " fill="#CD5B7C" transform="translate(296,322)"/>
<path d="M0 0 C-3.37862223 2.25241482 -6.40142242 2.90252167 -10.3125 3.625 C-11.01439453 3.75688721 -11.71628906 3.88877441 -12.43945312 4.0246582 C-19.32619011 5.22117461 -26.0139616 5.2947235 -33 5 C-24.58813667 -0.60790889 -9.96203146 -0.10828295 0 0 Z " fill="#F1CC5C" transform="translate(133,238)"/>
<path d="M0 0 C1.18597748 3.55793245 0.69776079 4.72662052 -0.375 8.25 C-2.84365558 16.41732782 -3.24169441 24.46507683 -3.5625 32.9375 C-3.60568359 34.00291016 -3.64886719 35.06832031 -3.69335938 36.16601562 C-3.79874489 38.77723443 -3.90087088 41.38853746 -4 44 C-4.33 44 -4.66 44 -5 44 C-5.07485856 39.74995329 -5.12893167 35.50026866 -5.16479492 31.24975586 C-5.17976508 29.80763045 -5.20014868 28.36554964 -5.22631836 26.92358398 C-5.4029668 16.93082415 -4.5857742 9.00594754 0 0 Z " fill="#8CC85E" transform="translate(158,271)"/>
<path d="M0 0 C1.44133303 2.88266606 0.49327345 4.50761132 -0.375 7.5625 C-0.65085937 8.55378906 -0.92671875 9.54507813 -1.2109375 10.56640625 C-2 13 -2 13 -3 14 C-3.15582303 15.34015221 -3.25044142 16.68758903 -3.31640625 18.03515625 C-3.37924805 19.24848633 -3.37924805 19.24848633 -3.44335938 20.48632812 C-3.48267578 21.33646484 -3.52199219 22.18660156 -3.5625 23.0625 C-3.60568359 23.91650391 -3.64886719 24.77050781 -3.69335938 25.65039062 C-3.79976702 27.76672037 -3.90041731 29.88333813 -4 32 C-4.66 32 -5.32 32 -6 32 C-6.30963905 20.06169448 -5.85108346 10.53195023 0 0 Z " fill="#F5C04E" transform="translate(37,203)"/>
<path d="M0 0 C0 0.66 0 1.32 0 2 C-1.375 2.45833333 -2.75 2.91666667 -4.125 3.375 C-4.94226563 3.65085938 -5.75953125 3.92671875 -6.6015625 4.2109375 C-8.55325209 4.8530243 -10.52445604 5.43555887 -12.5 6 C-13.325 6.33 -14.15 6.66 -15 7 C-15.33 7.99 -15.66 8.98 -16 10 C-17.65 10 -19.3 10 -21 10 C-21 9.34 -21 8.68 -21 8 C-23.97 8 -26.94 8 -30 8 C-30 7.67 -30 7.34 -30 7 C-28.98421875 6.82984375 -27.9684375 6.6596875 -26.921875 6.484375 C-19.11766783 5.12724563 -11.72909539 3.48728674 -4.2578125 0.76953125 C-2 0 -2 0 0 0 Z " fill="#96CF6A" transform="translate(149,251)"/>
<path d="M0 0 C0.69867188 -0.00386719 1.39734375 -0.00773437 2.1171875 -0.01171875 C5.87074298 -0.00463657 9.35151145 0.22712977 13 1.125 C13 1.455 13 1.785 13 2.125 C7.06372979 3.42933619 1.16667748 3.23586318 -4.875 3.1875 C-6.47988281 3.18073242 -6.47988281 3.18073242 -8.1171875 3.17382812 C-10.74484986 3.16209749 -13.37239538 3.14568228 -16 3.125 C-10.9383147 -0.24945687 -5.93822109 -0.03286838 0 0 Z " fill="#85CED1" transform="translate(331,97.875)"/>
<path d="M0 0 C0 0.33 0 0.66 0 1 C-12.39833818 2.91658565 -24.43636505 4.52837717 -37 4 C-37 3.67 -37 3.34 -37 3 C-35.90945313 2.92652344 -35.90945313 2.92652344 -34.796875 2.8515625 C-29.48395973 2.45649957 -24.30028891 1.92351901 -19.0625 0.9375 C-12.69056917 -0.20185187 -6.45420405 -0.18738012 0 0 Z " fill="#87D1D3" transform="translate(322,188)"/>
<path d="M0 0 C0.67958771 0.0028299 1.35917542 0.00565979 2.05935669 0.00857544 C4.20902858 0.01968286 6.35826864 0.04476859 8.5078125 0.0703125 C9.97395227 0.08035455 11.44009864 0.08947825 12.90625 0.09765625 C16.48190881 0.11959091 20.05731844 0.15405436 23.6328125 0.1953125 C23.6328125 0.8553125 23.6328125 1.5153125 23.6328125 2.1953125 C22.97385986 2.18483887 22.31490723 2.17436523 21.63598633 2.16357422 C4.02955265 1.82878722 4.02955265 1.82878722 -13.3671875 4.1953125 C-13.3671875 3.5353125 -13.3671875 2.8753125 -13.3671875 2.1953125 C-8.75136007 0.39992337 -4.93964942 -0.04082355 0 0 Z " fill="#F6C865" transform="translate(194.3671875,218.8046875)"/>
<path d="M0 0 C1.98 0.66 3.96 1.32 6 2 C6 2.66 6 3.32 6 4 C6.99 4 7.98 4 9 4 C9 4.99 9 5.98 9 7 C11.23558031 8.59240659 11.23558031 8.59240659 14 10 C18.88888889 12.66666667 18.88888889 12.66666667 20 16 C11.59508538 13.03355955 5.92815566 7.49462387 0 1 C0 0.67 0 0.34 0 0 Z " fill="#9BCD6E" transform="translate(97,303)"/>
<path d="M0 0 C1.32 0 2.64 0 4 0 C4 0.99 4 1.98 4 3 C4.66 3 5.32 3 6 3 C6.268125 3.763125 6.53625 4.52625 6.8125 5.3125 C7.94424112 7.87380884 8.91223401 9.19692938 11 11 C6.90367503 11 5.23932119 9.44601804 2 7 C-0.375 4.25 -0.375 4.25 -2 2 C-1.34 1.67 -0.68 1.34 0 1 C0 0.67 0 0.34 0 0 Z " fill="#82C74A" transform="translate(48,265)"/>
<path d="M0 0 C1.4550293 0.01353516 1.4550293 0.01353516 2.93945312 0.02734375 C5.31406407 0.05073893 7.68814776 0.08351824 10.0625 0.125 C10.0625 0.455 10.0625 0.785 10.0625 1.125 C9.4012915 1.18034912 8.74008301 1.23569824 8.05883789 1.29272461 C5.0804762 1.54465715 2.10275375 1.80348502 -0.875 2.0625 C-1.91591797 2.14951172 -2.95683594 2.23652344 -4.02929688 2.32617188 C-5.01865234 2.41318359 -6.00800781 2.50019531 -7.02734375 2.58984375 C-7.94378662 2.668396 -8.86022949 2.74694824 -9.80444336 2.82788086 C-11.91713826 2.90370751 -11.91713826 2.90370751 -12.9375 4.125 C-14.45678038 4.19679964 -15.97917482 4.20892007 -17.5 4.1875 C-18.32628906 4.17847656 -19.15257812 4.16945313 -20.00390625 4.16015625 C-20.64199219 4.14855469 -21.28007812 4.13695313 -21.9375 4.125 C-14.73117048 0.08945547 -8.06790129 -0.14338034 0 0 Z " fill="#7BC7C6" transform="translate(242.9375,68.875)"/>
<path d="M0 0 C0.80566406 0.00322266 1.61132812 0.00644531 2.44140625 0.00976562 C3.70404297 0.02233398 3.70404297 0.02233398 4.9921875 0.03515625 C5.84167969 0.03966797 6.69117188 0.04417969 7.56640625 0.04882812 C9.66669659 0.06062751 11.7669508 0.07856319 13.8671875 0.09765625 C13.8671875 0.75765625 13.8671875 1.41765625 13.8671875 2.09765625 C5.4521875 2.59265625 5.4521875 2.59265625 -3.1328125 3.09765625 C-3.7928125 4.41765625 -4.4528125 5.73765625 -5.1328125 7.09765625 C-5.4628125 5.11765625 -5.7928125 3.13765625 -6.1328125 1.09765625 C-3.8362755 -0.05061225 -2.54968083 -0.0179555 0 0 Z " fill="#B4536D" transform="translate(279.1328125,208.90234375)"/>
<path d="M0 0 C4.68187876 1.31981745 8.00374921 3.19795672 11.875 6.125 C13.32519531 7.21167969 13.32519531 7.21167969 14.8046875 8.3203125 C15.89136719 9.15175781 15.89136719 9.15175781 17 10 C16.67 10.66 16.34 11.32 16 12 C14.35 11.67 12.7 11.34 11 11 C11 10.01 11 9.02 11 8 C10.01 7.67 9.02 7.34 8 7 C7.34 6.34 6.68 5.68 6 5 C4.01178687 4.60235737 2.01055661 4.26224651 0 4 C-0.33 3.01 -0.66 2.02 -1 1 C-0.67 0.67 -0.34 0.34 0 0 Z " fill="#80CCCC" transform="translate(264,73)"/>
<path d="M0 0 C1.07431653 3.49531154 0.67225677 5.44309751 -0.4609375 8.92578125 C-1.31023712 12.19373848 -1.45033567 15.50172985 -1.65625 18.86328125 C-2 21 -2 21 -4 23 C-5.29271095 17.10926326 -4.53786235 13.19976122 -2.5625 7.5625 C-2.31951172 6.83095703 -2.07652344 6.09941406 -1.82617188 5.34570312 C-1.23071271 3.55932563 -0.61719836 1.77898352 0 0 Z " fill="#CA4A6C" transform="translate(177,269)"/>
<path d="M0 0 C0.99 0.33 1.98 0.66 3 1 C3.6875 3.0625 3.6875 3.0625 4 5 C5.98491642 4.73323796 5.98491642 4.73323796 8 4 C8.33 3.01 8.66 2.02 9 1 C10.32 1.33 11.64 1.66 13 2 C6.85714286 7.57142857 6.85714286 7.57142857 2 8 C1.34 5.36 0.68 2.72 0 0 Z " fill="#74568D" transform="translate(424,268)"/>
<path d="M0 0 C-1.65 0.33 -3.3 0.66 -5 1 C-5 2.32 -5 3.64 -5 5 C-5.99 5 -6.98 5 -8 5 C-8.33 5.66 -8.66 6.32 -9 7 C-9 6.34 -9 5.68 -9 5 C-9.515625 5.165 -10.03125 5.33 -10.5625 5.5 C-13.73363876 6.15049 -16.77218334 6.0620734 -20 6 C-16.41588944 4.08187048 -12.6910399 2.70268573 -8.875 1.3125 C-8.24207031 1.07466797 -7.60914063 0.83683594 -6.95703125 0.59179688 C-2.23506773 -1.11753387 -2.23506773 -1.11753387 0 0 Z " fill="#98D06B" transform="translate(170,245)"/>
<path d="M0 0 C2 1 2 1 2.8515625 3.1875 C4.54330192 9.33927969 5.31360781 14.62330779 5 21 C4.34 21 3.68 21 3 21 C2.1458397 18.4375191 1.74708429 16.4225923 1.46484375 13.76953125 C1.33432617 12.56586914 1.33432617 12.56586914 1.20117188 11.33789062 C1.11416016 10.50451172 1.02714844 9.67113281 0.9375 8.8125 C0.84662109 7.96751953 0.75574219 7.12253906 0.66210938 6.25195312 C0.4384388 4.16828515 0.21882849 2.08418205 0 0 Z " fill="#F0C85A" transform="translate(183,112)"/>
<path d="M0 0 C8.56674915 -0.33328851 15.95073076 -0.11584616 24 3 C23.67 3.66 23.34 4.32 23 5 C22.33613281 4.855625 21.67226563 4.71125 20.98828125 4.5625 C20.10527344 4.376875 19.22226562 4.19125 18.3125 4 C17.44238281 3.814375 16.57226562 3.62875 15.67578125 3.4375 C13.06287036 3.01027953 10.64186962 2.92383799 8 3 C8 2.34 8 1.68 8 1 C5.36 1 2.72 1 0 1 C0 0.67 0 0.34 0 0 Z " fill="#8B6FA7" transform="translate(393,173)"/>
<path d="M0 0 C0.33 0.99 0.66 1.98 1 3 C0.34 3.66 -0.32 4.32 -1 5 C-1.99 5 -2.98 5 -4 5 C-4.2475 5.7425 -4.495 6.485 -4.75 7.25 C-6.09904793 10.21790544 -7.68050687 11.75532923 -10 14 C-10.33 14.99 -10.66 15.98 -11 17 C-11.66 17 -12.32 17 -13 17 C-11.61047587 12.98981897 -9.73301706 10.09967277 -7.0625 6.8125 C-6.37285156 5.95269531 -5.68320313 5.09289062 -4.97265625 4.20703125 C-3 2 -3 2 0 0 Z " fill="#F5D676" transform="translate(110,112)"/>
<path d="M0 0 C4 2 4 2 7 4 C7.40843923 6.71203652 7.13336867 9.2437142 7 12 C7.66 12.33 8.32 12.66 9 13 C8.01 14.485 8.01 14.485 7 16 C4.69 10.72 2.38 5.44 0 0 Z " fill="#CD5078" transform="translate(320,335)"/>
<path d="M0 0 C4.99958703 3.83395298 8.25777464 7.29617125 11 13 C11 13.66 11 14.32 11 15 C10.01 15 9.02 15 8 15 C7.938125 14.05125 7.87625 13.1025 7.8125 12.125 C7.544375 11.09375 7.27625 10.0625 7 9 C6.195625 8.690625 5.39125 8.38125 4.5625 8.0625 C3.716875 7.711875 2.87125 7.36125 2 7 C0.6875 3.375 0.6875 3.375 0 0 Z " fill="#68C2BD" transform="translate(281,85)"/>
<path d="M0 0 C4.4114727 3.23507998 4.84694558 6.84557192 5.703125 11.953125 C5.80109375 12.62859375 5.8990625 13.3040625 6 14 C5.34 13.67 4.68 13.34 4 13 C4 12.01 4 11.02 4 10 C3.34 10 2.68 10 2 10 C2 9.01 2 8.02 2 7 C1.01 7 0.02 7 -1 7 C-0.67 4.69 -0.34 2.38 0 0 Z " fill="#F2C03D" transform="translate(249,172)"/>
<path d="M0 0 C4.03727515 2.84984128 7.21157979 5.28248097 8.5625 10.1875 C9 14 9 14 7 17 C6.67 14.36 6.34 11.72 6 9 C5.34 9 4.68 9 4 9 C3.34 7.02 2.68 5.04 2 3 C1.34 3 0.68 3 0 3 C0 2.01 0 1.02 0 0 Z " fill="#CF6D88" transform="translate(393,390)"/>
<path d="M0 0 C-2.77687664 2.77687664 -5.08299515 2.69310559 -8.9375 3.25 C-10.80728516 3.53617188 -10.80728516 3.53617188 -12.71484375 3.828125 C-16 4 -16 4 -19 2 C-12.56986533 0.26044666 -6.65050424 -0.24991456 0 0 Z " fill="#C75379" transform="translate(226,247)"/>
<path d="M0 0 C0.6875 1.6875 0.6875 1.6875 1 4 C-0.3125 6.75 -0.3125 6.75 -2 9 C-2.66 9 -3.32 9 -4 9 C-4.33 10.65 -4.66 12.3 -5 14 C-5.99 14.33 -6.98 14.66 -8 15 C-7.34 12.36 -6.68 9.72 -6 7 C-5.01 7 -4.02 7 -3 7 C-2.814375 6.1028125 -2.814375 6.1028125 -2.625 5.1875 C-2 3 -2 3 0 0 Z " fill="#F3C444" transform="translate(102,122)"/>
<path d="M0 0 C-0.33 0.99 -0.66 1.98 -1 3 C-4.6583108 4.58466433 -8.83147995 4.11064817 -12.75 4.0625 C-13.44738281 4.05798828 -14.14476562 4.05347656 -14.86328125 4.04882812 C-16.57555803 4.0371002 -18.28779033 4.01916653 -20 4 C-20 3.67 -20 3.34 -20 3 C-17.22970414 2.49685437 -14.4588348 1.99736162 -11.6875 1.5 C-10.90181641 1.35691406 -10.11613281 1.21382812 -9.30664062 1.06640625 C-8.54931641 0.93105469 -7.79199219 0.79570312 -7.01171875 0.65625 C-6.31522217 0.53056641 -5.61872559 0.40488281 -4.90112305 0.27539062 C-3 0 -3 0 0 0 Z " fill="#DB758F" transform="translate(246,243)"/>
<path d="M0 0 C0 3.42542775 -0.80858929 4.92691294 -2.375 7.9375 C-2.81585938 8.79214844 -3.25671875 9.64679688 -3.7109375 10.52734375 C-4.13632813 11.34332031 -4.56171875 12.15929687 -5 13 C-5.66936072 14.3319829 -6.33705338 15.66481312 -7 17 C-6.03644647 7.58997722 -6.03644647 7.58997722 -5 3 C-4.01 3 -3.02 3 -2 3 C-2 2.34 -2 1.68 -2 1 C-1.34 0.67 -0.68 0.34 0 0 Z " fill="#96CC6B" transform="translate(166,254)"/>
<path d="M0 0 C0.268125 0.61875 0.53625 1.2375 0.8125 1.875 C1.95556848 4.2995233 1.95556848 4.2995233 5 6 C5.40843923 8.71203652 5.13336867 11.2437142 5 14 C1.66806381 11.30271832 0.39628004 7.97939813 -1 4 C-0.6875 1.5625 -0.6875 1.5625 0 0 Z " fill="#97CD69" transform="translate(89,284)"/>
<path d="M0 0 C-0.75 2.9375 -0.75 2.9375 -2 6 C-4.125 6.875 -4.125 6.875 -6 7 C-6 7.66 -6 8.32 -6 9 C-7.32 9.33 -8.64 9.66 -10 10 C-10 9.34 -10 8.68 -10 8 C-9.34 8 -8.68 8 -8 8 C-7.7525 7.4225 -7.505 6.845 -7.25 6.25 C-5.58207452 3.24773413 -3.67725381 0 0 0 Z " fill="#F5CB5B" transform="translate(52,186)"/>
<path d="M0 0 C2 1 2 1 2.88671875 3.2578125 C4.4781344 8.95585683 5.41404073 13.21528791 4 19 C3.67 19 3.34 19 3 19 C2.49521515 16.58424393 1.99602358 14.16755639 1.5 11.75 C1.35691406 11.06808594 1.21382812 10.38617188 1.06640625 9.68359375 C0.38748951 6.35366879 0 3.41667449 0 0 Z " fill="#85CFCF" transform="translate(201,107)"/>
<path d="M0 0 C0.66 0.33 1.32 0.66 2 1 C0.26017005 6.81261371 -1.8110489 11.83169994 -5 17 C-6.24546405 14.50907189 -5.7767578 13.58919267 -5 11 C-4.34 11 -3.68 11 -3 11 C-2.86722656 10.28972656 -2.73445313 9.57945312 -2.59765625 8.84765625 C-2.42105469 7.92855469 -2.24445313 7.00945312 -2.0625 6.0625 C-1.88847656 5.14597656 -1.71445312 4.22945313 -1.53515625 3.28515625 C-1 1 -1 1 0 0 Z " fill="#CA5E7E" transform="translate(412,304)"/>
<path d="M0 0 C0.66 1.32 1.32 2.64 2 4 C-0.31 7.3 -2.62 10.6 -5 14 C-6.25541557 10.23375329 -5.37061958 8.62811066 -4 5 C-2.68 5 -1.36 5 0 5 C0 3.35 0 1.7 0 0 Z " fill="#8361A0" transform="translate(447,251)"/>
<path d="M0 0 C0.33 0.99 0.66 1.98 1 3 C1.66 3 2.32 3 3 3 C3 2.34 3 1.68 3 1 C4.65 0.67 6.3 0.34 8 0 C8.33 1.98 8.66 3.96 9 6 C5.37471432 6.20140476 3.13498292 5.85776765 0 4 C0 2.68 0 1.36 0 0 Z " fill="#663685" transform="translate(358,225)"/>
<path d="M0 0 C4.10899581 1.12795963 8.07561214 2.33510818 12 4 C12 4.99 12 5.98 12 7 C3.7 4.76538462 3.7 4.76538462 1 3 C0.67 2.01 0.34 1.02 0 0 Z " fill="#CB597A" transform="translate(180,321)"/>
<path d="M0 0 C0.55171875 0.31710938 1.1034375 0.63421875 1.671875 0.9609375 C4.28477989 2.12709975 6.40579002 2.40045711 9.25 2.625 C10.14203125 2.69976562 11.0340625 2.77453125 11.953125 2.8515625 C12.96632813 2.92503906 12.96632813 2.92503906 14 3 C10.86588698 5.08940868 10.02549528 5.27364412 6.4375 5.25 C5.25994141 5.25773438 5.25994141 5.25773438 4.05859375 5.265625 C2 5 2 5 0 3 C0 2.01 0 1.02 0 0 Z " fill="#F0D966" transform="translate(32,241)"/>
<path d="M0 0 C1.65 0.33 3.3 0.66 5 1 C2.24829249 3.9555377 -0.41970299 6.11563315 -4 8 C-4.66 8 -5.32 8 -6 8 C-6 6.68 -6 5.36 -6 4 C-4.35 3.67 -2.7 3.34 -1 3 C-0.67 2.01 -0.34 1.02 0 0 Z " fill="#7BCBCA" transform="translate(364,169)"/>
<path d="M0 0 C1.98 0 3.96 0 6 0 C3.82813579 2.17186421 2.50023469 2.6793248 -0.375 3.625 C-1.14585937 3.88539063 -1.91671875 4.14578125 -2.7109375 4.4140625 C-5 5 -5 5 -9 5 C-8.67 4.01 -8.34 3.02 -8 2 C-5.36 2 -2.72 2 0 2 C0 1.34 0 0.68 0 0 Z " fill="#D06380" transform="translate(227,325)"/>
<path d="M0 0 C1.43343546 2.86687092 0.56303792 4.50563683 -0.25 7.5625 C-0.62898438 9.04943359 -0.62898438 9.04943359 -1.015625 10.56640625 C-1.34046875 11.36949219 -1.6653125 12.17257813 -2 13 C-2.99 13.33 -3.98 13.66 -5 14 C-4.03603575 8.79459302 -3.12319499 4.40086567 0 0 Z " fill="#F5D371" transform="translate(37,203)"/>
<path d="M0 0 C0 0.66 0 1.32 0 2 C0.66 2.33 1.32 2.66 2 3 C-1.96 3.66 -5.92 4.32 -10 5 C-5 -1.5 -5 -1.5 0 0 Z " fill="#F7C953" transform="translate(121,107)"/>
<path d="M0 0 C0.625 1.8125 0.625 1.8125 1 4 C0.01 5.485 0.01 5.485 -1 7 C-1.39387788 9.32387947 -1.73486085 11.65793749 -2 14 C-2.99 14.33 -3.98 14.66 -5 15 C-3.25740319 4.44191344 -3.25740319 4.44191344 0 0 Z " fill="#F5C443" transform="translate(41,196)"/>
<path d="M0 0 C0.33 1.32 0.66 2.64 1 4 C-1.75 6.0625 -1.75 6.0625 -5 8 C-6.32 7.67 -7.64 7.34 -9 7 C-6.03 4.69 -3.06 2.38 0 0 Z " fill="#8764A2" transform="translate(386,178)"/>
<path d="M0 0 C0.66 0 1.32 0 2 0 C5.2645028 3.2645028 5.93236055 7.41047299 6.125 11.9375 C6.08375 12.618125 6.0425 13.29875 6 14 C3.52813545 11.03653214 2.33751639 8.45958311 1.3125 4.75 C1.06113281 3.85796875 0.80976563 2.9659375 0.55078125 2.046875 C0.36902344 1.37140625 0.18726563 0.6959375 0 0 Z " fill="#D16F8B" transform="translate(329,357)"/>
<path d="M0 0 C0.66 0 1.32 0 2 0 C0.40758592 4.29951803 -2.35540725 6.39671947 -6 9 C-6.99 8.67 -7.98 8.34 -9 8 C-7.68 7.67 -6.36 7.34 -5 7 C-5 5.68 -5 4.36 -5 3 C-3.68 3 -2.36 3 -1 3 C-0.67 2.01 -0.34 1.02 0 0 Z " fill="#F4CE70" transform="translate(252,217)"/>
<path d="M0 0 C3.12290635 0.48578543 5.99580359 0.9986012 9 2 C9 2.99 9 3.98 9 5 C10.32 5.33 11.64 5.66 13 6 C11.296875 6.6796875 11.296875 6.6796875 9 7 C6.640625 5.8203125 6.640625 5.8203125 4.25 4.125 C3.45078125 3.57070313 2.6515625 3.01640625 1.828125 2.4453125 C1.22484375 1.96835937 0.6215625 1.49140625 0 1 C0 0.67 0 0.34 0 0 Z " fill="#CC5376" transform="translate(258,306)"/>
<path d="M0 0 C0.86625 0.3403125 0.86625 0.3403125 1.75 0.6875 C1.42 2.0075 1.09 3.3275 0.75 4.6875 C-1.56 5.0175 -3.87 5.3475 -6.25 5.6875 C-6.25 4.6975 -6.25 3.7075 -6.25 2.6875 C-4.08146295 0.51896295 -3.10906228 -0.43181421 0 0 Z " fill="#C6476D" transform="translate(191.25,255.3125)"/>
<path d="M0 0 C-0.34879632 3.25543229 -1.02133261 4.01873107 -3.5625 6.25 C-4.366875 6.8275 -5.17125 7.405 -6 8 C-5.79375 7.21625 -5.5875 6.4325 -5.375 5.625 C-5.25125 4.75875 -5.1275 3.8925 -5 3 C-5.66 2.34 -6.32 1.68 -7 1 C-4.50935112 0.31292445 -2.62113708 0 0 0 Z " fill="#B3D094" transform="translate(177,242)"/>
<path d="M0 0 C-2.79655447 1.45879493 -5.58256419 2.65385052 -8.5625 3.6875 C-9.32691406 3.95949219 -10.09132812 4.23148438 -10.87890625 4.51171875 C-13 5 -13 5 -16 4 C-15 2 -15 2 -13.14453125 1.3671875 C-8.68502511 0.4259852 -4.58835504 -0.23530026 0 0 Z " fill="#F4C957" transform="translate(149,233)"/>
<path d="M0 0 C-0.33 0.66 -0.66 1.32 -1 2 C-3.94140625 2.6328125 -3.94140625 2.6328125 -7.5625 3.125 C-8.76003906 3.29257813 -9.95757812 3.46015625 -11.19140625 3.6328125 C-12.11824219 3.75398437 -13.04507813 3.87515625 -14 4 C-14 3.34 -14 2.68 -14 2 C-9.07262981 0.02905192 -5.21979128 -0.1799928 0 0 Z " fill="#F3CA59" transform="translate(195,219)"/>
<path d="M0 0 C-0.99 0 -1.98 0 -3 0 C-3 0.66 -3 1.32 -3 2 C-6.4019487 4.09350689 -9.05272412 4.17942163 -13 4 C-9.68492165 -0.05176242 -5.01001751 -1.92692981 0 0 Z " fill="#F3CF68" transform="translate(72,177)"/>
<path d="M0 0 C0.99 0 1.98 0 3 0 C3.43200679 4.75207471 1.98489083 7.78210698 0 12 C-0.66 11.67 -1.32 11.34 -2 11 C-1.34 7.37 -0.68 3.74 0 0 Z " fill="#76C23F" transform="translate(156,266)"/>
<path d="M0 0 C0.66 0.33 1.32 0.66 2 1 C1.25 7.75 1.25 7.75 -1 10 C-1.99 9.67 -2.98 9.34 -4 9 C-2.68 6.03 -1.36 3.06 0 0 Z " fill="#CB486B" transform="translate(272,217)"/>
<path d="M0 0 C4.875 3.625 4.875 3.625 6 7 C4.68 7 3.36 7 2 7 C2 6.34 2 5.68 2 5 C1.01 5 0.02 5 -1 5 C-0.67 3.35 -0.34 1.7 0 0 Z " fill="#D0557A" transform="translate(331,213)"/>
<path d="M0 0 C0.99 0.33 1.98 0.66 3 1 C3 1.99 3 2.98 3 4 C3.66 4 4.32 4 5 4 C6.35439668 6.70879335 6.06501451 9.00933268 6 12 C4.02433812 10.02433812 3.10420928 8.47662906 1.875 6 C1.52179688 5.29875 1.16859375 4.5975 0.8046875 3.875 C0 2 0 2 0 0 Z " fill="#78CBC7" transform="translate(266,166)"/>
<path d="M0 0 C3.375 4.5 3.375 4.5 3.6875 8.75 C3.75324219 9.54921875 3.81898438 10.3484375 3.88671875 11.171875 C3.92410156 11.77515625 3.96148437 12.3784375 4 13 C2.68 12.67 1.36 12.34 0 12 C0 8.04 0 4.08 0 0 Z " fill="#DD7CAA" transform="translate(170,303)"/>
<path d="M0 0 C4.97093824 0.41153737 9.44508386 0.79600832 14 3 C13.01 3.66 12.02 4.32 11 5 C8.30078125 4.3203125 8.30078125 4.3203125 5.3125 3.125 C4.31863281 2.73570312 3.32476562 2.34640625 2.30078125 1.9453125 C1.54152344 1.63335937 0.78226562 1.32140625 0 1 C0 0.67 0 0.34 0 0 Z " fill="#CC6D88" transform="translate(369,250)"/>
<path d="M0 0 C0.8353125 0.556875 0.8353125 0.556875 1.6875 1.125 C0.6975 1.125 -0.2925 1.125 -1.3125 1.125 C-1.415625 2.07375 -1.51875 3.0225 -1.625 4 C-2.3125 7.125 -2.3125 7.125 -5.3125 9.125 C-5.3125 8.135 -5.3125 7.145 -5.3125 6.125 C-4.6525 6.125 -3.9925 6.125 -3.3125 6.125 C-3.3125 5.135 -3.3125 4.145 -3.3125 3.125 C-4.6325 2.465 -5.9525 1.805 -7.3125 1.125 C-2.88173077 -1.09038462 -2.88173077 -1.09038462 0 0 Z " fill="#85C14A" transform="translate(172.3125,244.875)"/>
<path d="M0 0 C3.13269705 3.13269705 3.05494397 5.97328423 3.0625 10.25 C3.041875 11.4875 3.02125 12.725 3 14 C0.77666273 10.18856467 -0.10108198 6.28714747 -1 2 C-0.67 1.34 -0.34 0.68 0 0 Z " fill="#9176A7" transform="translate(355,215)"/>
<path d="M0 0 C0 1.32 0 2.64 0 4 C-0.66 4 -1.32 4 -2 4 C-2.33 4.99 -2.66 5.98 -3 7 C-3.99 5.35 -4.98 3.7 -6 2 C-3 0 -3 0 0 0 Z " fill="#7D5C98" transform="translate(350,199)"/>
<path d="M0 0 C3.08089673 2.77280706 4.68775452 5.06326356 6 9 C5.34 9.66 4.68 10.32 4 11 C2.03810791 7.3321148 0.60698743 4.12751449 0 0 Z " fill="#CD6D8A" transform="translate(403,267)"/>
<path d="M0 0 C-2.42130331 2.42130331 -3.80111377 2.52840504 -7.125 3.125 C-8.49011719 3.37636719 -8.49011719 3.37636719 -9.8828125 3.6328125 C-10.58148438 3.75398437 -11.28015625 3.87515625 -12 4 C-12 3.34 -12 2.68 -12 2 C-7.8794254 0.00214565 -4.54805635 -0.17835515 0 0 Z " fill="#88CFCF" transform="translate(345,182)"/>
<path d="M0 0 C0.66 0.33 1.32 0.66 2 1 C0.86280581 4.41158256 -0.04342944 5.11854601 -3 7 C-3.66 7 -4.32 7 -5 7 C-5.33 7.66 -5.66 8.32 -6 9 C-6 7.35 -6 5.7 -6 4 C-4.35 3.67 -2.7 3.34 -1 3 C-0.67 2.01 -0.34 1.02 0 0 Z " fill="#7BC6CA" transform="translate(383,156)"/>
<path d="M0 0 C-0.33 0.66 -0.66 1.32 -1 2 C-3.06640625 2.4140625 -3.06640625 2.4140625 -5.5625 2.625 C-6.38878906 2.69976562 -7.21507812 2.77453125 -8.06640625 2.8515625 C-9.02353516 2.92503906 -9.02353516 2.92503906 -10 3 C-10.33 2.34 -10.66 1.68 -11 1 C-3.375 -1.125 -3.375 -1.125 0 0 Z " fill="#CE6385" transform="translate(360,267)"/>
<path d="M0 0 C0.66 0 1.32 0 2 0 C3.35439668 2.70879335 3.06501451 5.00933268 3 8 C1.68 7.67 0.36 7.34 -1 7 C-0.67 4.69 -0.34 2.38 0 0 Z " fill="#754B95" transform="translate(451,233)"/>
<path d="M0 0 C-1 2 -1 2 -3.375 3.125 C-6 4 -6 4 -9 4 C-9 3.01 -9 2.02 -9 1 C-6.04335481 -0.4783226 -3.25770263 -0.06032783 0 0 Z " fill="#75C8C5" transform="translate(354,178)"/>
<path d="M0 0 C0.33 0.66 0.66 1.32 1 2 C1.99 2.33 2.98 2.66 4 3 C1.03 5.475 1.03 5.475 -2 8 C-2.33 6.68 -2.66 5.36 -3 4 C-2.01 4 -1.02 4 0 4 C0 2.68 0 1.36 0 0 Z " fill="#C63F68" transform="translate(244,312)"/>
<path d="M0 0 C0.99 0 1.98 0 3 0 C2.67 0.99 2.34 1.98 2 3 C1.34 3 0.68 3 0 3 C0 6.96 0 10.92 0 15 C-0.33 15 -0.66 15 -1 15 C-1.02685412 12.68756208 -1.04632841 10.3750373 -1.0625 8.0625 C-1.07410156 6.77472656 -1.08570313 5.48695313 -1.09765625 4.16015625 C-1 1 -1 1 0 0 Z " fill="#B54861" transform="translate(361,249)"/>
<path d="M0 0 C3.3309303 -0.37010337 4.62731223 -0.27461204 7.375 1.75 C9 4 9 4 8.75 6.25 C8.5025 6.8275 8.255 7.405 8 8 C7.67 7.01 7.34 6.02 7 5 C6.34 5 5.68 5 5 5 C3.5 3.625 3.5 3.625 2 2 C1.34 1.34 0.68 0.68 0 0 Z " fill="#86CCCC" transform="translate(252,152)"/>
<path d="M0 0 C4.455 2.97 4.455 2.97 9 6 C8.01 6.495 8.01 6.495 7 7 C6.67 7.99 6.34 8.98 6 10 C6 8.35 6 6.7 6 5 C4.35 4.67 2.7 4.34 1 4 C0.67 2.68 0.34 1.36 0 0 Z " fill="#F5D376" transform="translate(174,105)"/>
<path d="M0 0 C2.31 0.33 4.62 0.66 7 1 C5.875 2.5 5.875 2.5 4 4 C0.8125 4.1875 0.8125 4.1875 -2 4 C-1.34 2.68 -0.68 1.36 0 0 Z " fill="#C03660" transform="translate(380,418)"/>
<path d="M0 0 C2.64 0 5.28 0 8 0 C8 0.66 8 1.32 8 2 C8.66 2 9.32 2 10 2 C10 2.66 10 3.32 10 4 C6.7 3.01 3.4 2.02 0 1 C0 0.67 0 0.34 0 0 Z " fill="#98D26A" transform="translate(117,319)"/>
<path d="M0 0 C1 2 2 4 3 6 C1.35 6.33 -0.3 6.66 -2 7 C-2 3 -2 3 0 0 Z " fill="#D04F74" transform="translate(181,263)"/>
<path d="M0 0 C0.66 0.33 1.32 0.66 2 1 C-0.34591852 3.7710688 -2.14776201 4.52059284 -5.6875 5.1875 C-6.49574219 5.34605469 -7.30398438 5.50460938 -8.13671875 5.66796875 C-9.05904297 5.83232422 -9.05904297 5.83232422 -10 6 C-7.07865822 2.81957898 -4.06268795 1.47734107 0 0 Z " fill="#7FC7C4" transform="translate(310,102)"/>
<path d="M0 0 C0.33 0.99 0.66 1.98 1 3 C0 4 0 4 -2.72265625 4.09765625 C-4.37587891 4.08025391 -4.37587891 4.08025391 -6.0625 4.0625 C-7.16722656 4.05347656 -8.27195313 4.04445313 -9.41015625 4.03515625 C-10.69212891 4.01775391 -10.69212891 4.01775391 -12 4 C-12 3.67 -12 3.34 -12 3 C-10.82630859 2.80083984 -10.82630859 2.80083984 -9.62890625 2.59765625 C-8.61699219 2.42105469 -7.60507813 2.24445313 -6.5625 2.0625 C-5.55316406 1.88847656 -4.54382813 1.71445312 -3.50390625 1.53515625 C-1.0712562 1.25248903 -1.0712562 1.25248903 0 0 Z " fill="#8BBE54" transform="translate(153,320)"/>
<path d="M0 0 C3.11650396 1.50053894 6.13149298 3.06181958 9 5 C9.33 5.99 9.66 6.98 10 8 C4.98886765 6.5682479 3.05530451 4.01554307 0 0 Z " fill="#91C655" transform="translate(107,311)"/>
<path d="M0 0 C2.9375 0.75 2.9375 0.75 6 2 C6.875 4.125 6.875 4.125 7 6 C4.0625 5.25 4.0625 5.25 1 4 C0.125 1.875 0.125 1.875 0 0 Z " fill="#83C44D" transform="translate(95,299)"/>
<path d="M0 0 C2.64 0.33 5.28 0.66 8 1 C8.66 2.65 9.32 4.3 10 6 C6.7 4.35 3.4 2.7 0 1 C0 0.67 0 0.34 0 0 Z " fill="#997EAB" transform="translate(394,240)"/>
<path d="M0 0 C0 0.99 0 1.98 0 3 C-3.3 2.34 -6.6 1.68 -10 1 C-5.64467851 -1.17766075 -4.53374042 -1.03039555 0 0 Z " fill="#7B5997" transform="translate(388,234)"/>
<path d="M0 0 C2.64 0 5.28 0 8 0 C8 0.66 8 1.32 8 2 C8.66 2.33 9.32 2.66 10 3 C5.82412255 4.39195915 3.86525224 2.82323219 0 1 C0 0.67 0 0.34 0 0 Z " fill="#F8CF62" transform="translate(218,221)"/>
<path d="M0 0 C0.66 0 1.32 0 2 0 C1.38461538 5.53846154 1.38461538 5.53846154 -0.5625 7.875 C-1.036875 8.24625 -1.51125 8.6175 -2 9 C-2.25 3.375 -2.25 3.375 0 0 Z " fill="#C7597B" transform="translate(391,334)"/>
<path d="M0 0 C1.60156595 4.00391487 0.4087561 7.07031192 -1 11 C-1.99 11.495 -1.99 11.495 -3 12 C-2.68950274 10.56206608 -2.3765224 9.1246682 -2.0625 7.6875 C-1.88847656 6.88699219 -1.71445313 6.08648437 -1.53515625 5.26171875 C-1 3 -1 3 0 0 Z " fill="#C75376" transform="translate(177,269)"/>
<path d="M0 0 C5.875 3.625 5.875 3.625 7 7 C6.34 7 5.68 7 5 7 C5 6.34 5 5.68 5 5 C3.68 5.33 2.36 5.66 1 6 C0.67 4.02 0.34 2.04 0 0 Z " fill="#CD6683" transform="translate(395,260)"/>
<path d="M0 0 C3.96 1.98 3.96 1.98 8 4 C7.34 4.66 6.68 5.32 6 6 C3.5625 5.25 3.5625 5.25 1 4 C0.67 2.68 0.34 1.36 0 0 Z " fill="#886AA0" transform="translate(425,180)"/>
<path d="M0 0 C3.26460973 1.80412643 4.88929795 2.83394693 7 6 C5.68 6 4.36 6 3 6 C3 5.34 3 4.68 3 4 C2.01 3.67 1.02 3.34 0 3 C0 2.01 0 1.02 0 0 Z " fill="#73C8C7" transform="translate(362,108)"/>
<path d="M0 0 C-2 2 -2 2 -4.1640625 2.1953125 C-5.38222656 2.16050781 -5.38222656 2.16050781 -6.625 2.125 C-7.44226563 2.10695313 -8.25953125 2.08890625 -9.1015625 2.0703125 C-9.72804687 2.04710938 -10.35453125 2.02390625 -11 2 C-7.00042393 -0.06874624 -4.43559483 -1.37656391 0 0 Z " fill="#6DC0BF" transform="translate(232,71)"/>
<path d="M0 0 C2.475 0.495 2.475 0.495 5 1 C5 1.66 5 2.32 5 3 C5.66 3.33 6.32 3.66 7 4 C6.67 4.99 6.34 5.98 6 7 C1.125 2.25 1.125 2.25 0 0 Z " fill="#D06783" transform="translate(348,396)"/>
<path d="M0 0 C0.66 0.33 1.32 0.66 2 1 C0.68 4.3 -0.64 7.6 -2 11 C-2.33 11 -2.66 11 -3 11 C-3.36923077 4.6 -3.36923077 4.6 -1.5 1.5625 C-1.005 1.046875 -0.51 0.53125 0 0 Z " fill="#CD718A" transform="translate(388,343)"/>
<path d="M0 0 C1.32 0.33 2.64 0.66 4 1 C2.1875 3 2.1875 3 0 5 C-0.99 5 -1.98 5 -3 5 C-3 4.34 -3 3.68 -3 3 C-2.34 3 -1.68 3 -1 3 C-0.67 2.01 -0.34 1.02 0 0 Z " fill="#7D5A96" transform="translate(433,269)"/>
<path d="M0 0 C-0.33 0.99 -0.66 1.98 -1 3 C-2.98 3.33 -4.96 3.66 -7 4 C-7 3.01 -7 2.02 -7 1 C-4.50935112 0.31292445 -2.62113708 0 0 0 Z " fill="#D06B87" transform="translate(246,243)"/>
<path d="M0 0 C2.1640625 -0.29296875 2.1640625 -0.29296875 4.625 -0.1875 C5.44226563 -0.16042969 6.25953125 -0.13335937 7.1015625 -0.10546875 C8.04128906 -0.05326172 8.04128906 -0.05326172 9 0 C5.36383344 1.9789756 2.11574371 2.5251065 -2 3 C-1.34 2.01 -0.68 1.02 0 0 Z " fill="#F6DC75" transform="translate(172,223)"/>
<path d="M0 0 C0.66 0 1.32 0 2 0 C2 0.66 2 1.32 2 2 C2.66 2 3.32 2 4 2 C4 3.32 4 4.64 4 6 C2.68 5.34 1.36 4.68 0 4 C0 2.68 0 1.36 0 0 Z " fill="#CC5476" transform="translate(345,389)"/>
<path d="M0 0 C1.65 0 3.3 0 5 0 C5.66 1.32 6.32 2.64 7 4 C4.69 3.34 2.38 2.68 0 2 C0 1.34 0 0.68 0 0 Z " fill="#C95978" transform="translate(271,313)"/>
<path d="M0 0 C2.3125 0.125 2.3125 0.125 5 1 C6.8125 4.0625 6.8125 4.0625 8 7 C4.2047869 5.50902342 2.38957269 3.24299151 0 0 Z " fill="#AAD081" transform="translate(46,267)"/>
<path d="M0 0 C0.33 0.66 0.66 1.32 1 2 C-1.64 2.33 -4.28 2.66 -7 3 C-7 2.34 -7 1.68 -7 1 C-4.53721199 -0.231394 -2.7204945 -0.07159196 0 0 Z " fill="#63C1BE" transform="translate(329,185)"/>
<path d="M0 0 C1.73662334 3.22515763 2.8905928 6.51329166 4 10 C3.34 10 2.68 10 2 10 C-0.4294516 6.3558226 -0.16179575 4.28758728 0 0 Z " fill="#F4D470" transform="translate(189,141)"/>
<path d="M0 0 C2.83374881 3.20336822 3.5205537 5.78087253 4 10 C1.2027092 7.93243723 0.97307727 6.85559629 0.3125 3.3125 C0.209375 2.219375 0.10625 1.12625 0 0 Z " fill="#86CECB" transform="translate(292,100)"/>
</svg>
